<svg version="1.0" xmlns="http://www.w3.org/2000/svg" width="933.333" height="933.333" viewBox="0 0 700 700"><path d="M0 350v350h700V0H0v350zm385.1-179.1c41.8 9.1 72.9 31.4 89.2 63.8 3.7 7.2 6.7 18.7 6.7 25.5 0 4.6-.5 6.2-2.4 8.5l-2.4 2.8-26.9.3c-17.4.2-28.1-.1-30.5-.8-4.2-1.2-8.2-5.8-9.4-10.5-2.2-9.5-10.1-18.9-21.2-25.4-13-7.7-28-10.8-46.6-9.8-33.3 1.8-51.6 14.9-53.3 38.1-1.6 21.2 11.4 34.8 43.6 45.5 12.2 4.1 34.6 10.6 43.6 12.6 3.9.9 14.2 3.7 23 6.1 55 15.5 81.1 35 90.5 67.4 2.8 9.5 3.9 33.4 2 44.6-7.4 46.5-47.9 78-110 85.9-17 2.2-55.5 1.7-69.5-.9-29.5-5.5-51.2-14.8-70.3-30.1-10.1-8.2-18.8-19.1-24.6-31-5.6-11.4-7.8-19.9-8-29.8-.1-7.4.1-8 2.7-10.3l2.8-2.4h27c18.1 0 27.8.4 29.2 1.1 4.3 2.2 6.9 5.5 10.2 12.7 4.3 9.1 9.2 15.2 17.1 20.8 8.1 5.8 14.9 8.8 25.9 11.6 7.8 1.9 11.5 2.2 28.5 2.2 16.4 0 21-.4 29-2.2 18.9-4.4 31.1-12.6 37.3-25.1 2.9-6 3.2-7.3 3.2-16.1-.1-11.6-2.1-16.4-9.8-23.7-11.7-11.1-28.3-17.5-82.2-31.7-64.5-17-93-34.7-105.4-65.7-4.2-10.5-6.2-22.3-6.2-36.9 0-14.2 1.6-23.1 6.1-34.9 12.7-32.8 47.9-56.6 94.2-63.6 14.5-2.2 54.3-1.4 66.9 1.4z"/></svg>